PathFileType	4	(X/Y/Z)	c:/Users/goper/Files/vsCode/490R/osim_files/C03/C03_Slow_02.trc
DataRate	CameraRate	NumFrames	NumMarkers	Units                	OrigDataRate	OrigDataStartFrame	OrigNumFrames
250.00	250.00	10	36	mm	250.0	1729	3456
                Frame#	Time	LPSIS			LASIS			LTH1			LTH2			LTH3			LTH4			LLFE			LMFE			LSH1			LSH2			LSH3			LSH4			LLMAL			LMMAL			LCAL			LMTP5			LTOE			LMTP1			RPSIS			RASIS			RTH1			RTH2			RTH3			RTH4			RLFE			RMFE			RSH1			RSH2			RSH3			RSH4			RLMAL			RMMAL			RCAL			RMTP1			RTOE			RMTP5		
		X1	Y1	Z1	X2	Y2	Z2	X3	Y3	Z3	X4	Y4	Z4	X5	Y5	Z5	X6	Y6	Z6	X7	Y7	Z7	X8	Y8	Z8	X9	Y9	Z9	X10	Y10	Z10	X11	Y11	Z11	X12	Y12	Z12	X13	Y13	Z13	X14	Y14	Z14	X15	Y15	Z15	X16	Y16	Z16	X17	Y17	Z17	X18	Y18	Z18	X19	Y19	Z19	X20	Y20	Z20	X21	Y21	Z21	X22	Y22	Z22	X23	Y23	Z23	X24	Y24	Z24	X25	Y25	Z25	X26	Y26	Z26	X27	Y27	Z27	X28	Y28	Z28	X29	Y29	Z29	X30	Y30	Z30	X31	Y31	Z31	X32	Y32	Z32	X33	Y33	Z33	X34	Y34	Z34	X35	Y35	Z35	X36	Y36	Z36

1729	6.91200	2127.46460	1049.38367	354.95023	0.00000	0.00000	0.00000	2064.65894	639.89911	419.72626	2062.94702	578.99243	408.89102	0.00000	0.00000	0.00000	0.00000	0.00000	0.00000	2049.80200	494.47952	392.49988	0.00000	0.00000	0.00000	2123.27734	311.90302	386.59747	2119.49951	265.85211	378.98416	0.00000	0.00000	0.00000	0.00000	0.00000	0.00000	0.00000	0.00000	0.00000	0.00000	0.00000	0.00000	0.00000	0.00000	0.00000	0.00000	0.00000	0.00000	0.00000	0.00000	0.00000	0.00000	0.00000	0.00000	0.00000	0.00000	0.00000	0.00000	0.00000	0.00000	2130.48218	1036.88953	239.83051	0.00000	0.00000	0.00000	0.00000	0.00000	0.00000	0.00000	0.00000	0.00000	0.00000	0.00000	0.00000	2054.17114	495.77380	278.79639	0.00000	0.00000	0.00000	0.00000	0.00000	0.00000	0.00000	0.00000	0.00000	1937.15527	63.93700	259.67871	0.00000	0.00000	0.00000	0.00000	0.00000	0.00000	0.00000	0.00000	0.00000	0.00000	0.00000	0.00000	0.00000	0.00000	0.00000	2081.27246	105.91627	121.69069
1730	6.91600	2123.81250	1049.53052	354.99445	0.00000	0.00000	0.00000	2062.62109	640.25208	419.54794	2061.01172	579.24640	408.69409	0.00000	0.00000	0.00000	0.00000	0.00000	0.00000	2048.17456	494.73871	392.34653	0.00000	0.00000	0.00000	2122.21240	312.25769	386.34052	2118.64209	266.23169	378.79733	0.00000	0.00000	0.00000	0.00000	0.00000	0.00000	0.00000	0.00000	0.00000	0.00000	0.00000	0.00000	0.00000	0.00000	0.00000	0.00000	0.00000	0.00000	0.00000	0.00000	0.00000	0.00000	0.00000	0.00000	0.00000	0.00000	0.00000	0.00000	0.00000	0.00000	2126.74658	1037.23474	239.84538	0.00000	0.00000	0.00000	0.00000	0.00000	0.00000	0.00000	0.00000	0.00000	0.00000	0.00000	0.00000	2052.38721	496.04141	278.66196	0.00000	0.00000	0.00000	0.00000	0.00000	0.00000	0.00000	0.00000	0.00000	1937.01001	63.87429	259.70850	0.00000	0.00000	0.00000	0.00000	0.00000	0.00000	0.00000	0.00000	0.00000	0.00000	0.00000	0.00000	0.00000	0.00000	0.00000	2067.84058	104.19880	120.94006
1731	6.92000	2120.14722	1049.65369	355.05637	0.00000	0.00000	0.00000	2060.58398	640.58838	419.32690	2059.17017	579.61566	408.49557	0.00000	0.00000	0.00000	0.00000	0.00000	0.00000	2046.54211	494.98975	392.16913	0.00000	0.00000	0.00000	2121.20605	312.70990	386.14084	2117.89502	266.72220	378.65265	0.00000	0.00000	0.00000	0.00000	0.00000	0.00000	0.00000	0.00000	0.00000	0.00000	0.00000	0.00000	0.00000	0.00000	0.00000	0.00000	0.00000	0.00000	0.00000	0.00000	0.00000	0.00000	0.00000	0.00000	0.00000	0.00000	0.00000	0.00000	0.00000	0.00000	2123.02222	1037.57092	239.89244	0.00000	0.00000	0.00000	0.00000	0.00000	0.00000	0.00000	0.00000	0.00000	0.00000	0.00000	0.00000	2050.52173	496.21289	278.47482	0.00000	0.00000	0.00000	0.00000	0.00000	0.00000	0.00000	0.00000	0.00000	1936.88867	63.81518	259.70001	0.00000	0.00000	0.00000	0.00000	0.00000	0.00000	0.00000	0.00000	0.00000	0.00000	0.00000	0.00000	0.00000	0.00000	0.00000	2053.96045	102.07618	120.07165
1732	6.92400	2116.47485	1049.77429	355.11526	0.00000	0.00000	0.00000	2058.47778	640.84869	419.03809	2057.29102	579.83130	408.26572	0.00000	0.00000	0.00000	0.00000	0.00000	0.00000	2044.94031	495.16129	392.01306	0.00000	0.00000	0.00000	2120.28442	313.21826	385.94568	2117.09302	267.12741	378.46594	0.00000	0.00000	0.00000	0.00000	0.00000	0.00000	0.00000	0.00000	0.00000	0.00000	0.00000	0.00000	0.00000	0.00000	0.00000	0.00000	0.00000	0.00000	0.00000	0.00000	0.00000	0.00000	0.00000	0.00000	0.00000	0.00000	0.00000	0.00000	0.00000	0.00000	2119.27808	1037.89917	239.93285	0.00000	0.00000	0.00000	0.00000	0.00000	0.00000	0.00000	0.00000	0.00000	0.00000	0.00000	0.00000	2048.58154	496.24847	278.25482	0.00000	0.00000	0.00000	0.00000	0.00000	0.00000	0.00000	0.00000	0.00000	1936.74731	63.74092	259.71783	0.00000	0.00000	0.00000	0.00000	0.00000	0.00000	0.00000	0.00000	0.00000	0.00000	0.00000	0.00000	0.00000	0.00000	0.00000	2040.45264	100.36454	119.29222
1733	6.92800	2112.83179	1049.85095	355.15891	0.00000	0.00000	0.00000	2056.41040	641.03473	418.77499	2055.48608	580.09930	408.05914	0.00000	0.00000	0.00000	0.00000	0.00000	0.00000	2043.36597	495.35986	391.82193	0.00000	0.00000	0.00000	2119.32056	313.57108	385.70697	2116.38989	267.56180	378.26706	0.00000	0.00000	0.00000	0.00000	0.00000	0.00000	0.00000	0.00000	0.00000	0.00000	0.00000	0.00000	0.00000	0.00000	0.00000	0.00000	0.00000	0.00000	0.00000	0.00000	0.00000	0.00000	0.00000	0.00000	0.00000	0.00000	0.00000	0.00000	0.00000	0.00000	2115.54395	1038.18372	239.99530	0.00000	0.00000	0.00000	0.00000	0.00000	0.00000	0.00000	0.00000	0.00000	0.00000	0.00000	0.00000	2046.59839	496.24710	278.04651	0.00000	0.00000	0.00000	0.00000	0.00000	0.00000	0.00000	0.00000	0.00000	1936.60144	63.64942	259.74274	0.00000	0.00000	0.00000	0.00000	0.00000	0.00000	0.00000	0.00000	0.00000	0.00000	0.00000	0.00000	0.00000	0.00000	0.00000	2026.62927	98.31142	118.42538
1734	6.93200	2109.15332	1049.89343	355.23099	0.00000	0.00000	0.00000	2054.46313	641.33276	418.54495	2053.65186	580.35626	407.82169	0.00000	0.00000	0.00000	0.00000	0.00000	0.00000	2041.74585	495.52640	391.62738	0.00000	0.00000	0.00000	2118.46191	314.02936	385.51227	2115.59839	267.96774	378.05142	0.00000	0.00000	0.00000	0.00000	0.00000	0.00000	0.00000	0.00000	0.00000	0.00000	0.00000	0.00000	0.00000	0.00000	0.00000	0.00000	0.00000	0.00000	0.00000	0.00000	0.00000	0.00000	0.00000	0.00000	0.00000	0.00000	0.00000	0.00000	0.00000	0.00000	2111.82959	1038.48706	240.06274	0.00000	0.00000	0.00000	0.00000	0.00000	0.00000	0.00000	0.00000	0.00000	0.00000	0.00000	0.00000	2044.74915	496.33664	277.87997	0.00000	0.00000	0.00000	0.00000	0.00000	0.00000	0.00000	0.00000	0.00000	1936.55713	63.63896	259.75125	0.00000	0.00000	0.00000	0.00000	0.00000	0.00000	0.00000	0.00000	0.00000	0.00000	0.00000	0.00000	0.00000	0.00000	0.00000	2013.01038	96.43708	117.71117
1735	6.93600	2105.48169	1049.94495	355.28882	0.00000	0.00000	0.00000	2052.44702	641.58276	418.24304	2051.92261	580.63287	407.60883	0.00000	0.00000	0.00000	0.00000	0.00000	0.00000	2040.21545	495.63199	391.45514	0.00000	0.00000	0.00000	2117.60571	314.50494	385.28699	2114.89380	268.35910	377.82190	0.00000	0.00000	0.00000	0.00000	0.00000	0.00000	0.00000	0.00000	0.00000	0.00000	0.00000	0.00000	0.00000	0.00000	0.00000	0.00000	0.00000	0.00000	0.00000	0.00000	0.00000	0.00000	0.00000	0.00000	0.00000	0.00000	0.00000	0.00000	0.00000	0.00000	2108.11060	1038.75244	240.11787	0.00000	0.00000	0.00000	0.00000	0.00000	0.00000	0.00000	0.00000	0.00000	2059.11914	466.36322	146.16075	2042.91528	496.42871	277.69687	0.00000	0.00000	0.00000	0.00000	0.00000	0.00000	0.00000	0.00000	0.00000	1936.47144	63.60441	259.80151	0.00000	0.00000	0.00000	0.00000	0.00000	0.00000	0.00000	0.00000	0.00000	0.00000	0.00000	0.00000	0.00000	0.00000	0.00000	1999.38794	94.58519	116.89209
1736	6.94000	2101.78833	1049.96484	355.40833	0.00000	0.00000	0.00000	2050.29980	641.69897	417.99155	2050.04443	580.79749	407.38602	0.00000	0.00000	0.00000	0.00000	0.00000	0.00000	2038.59167	495.71967	391.21405	0.00000	0.00000	0.00000	2116.61743	314.78867	385.02100	2114.14819	268.69055	377.63470	0.00000	0.00000	0.00000	0.00000	0.00000	0.00000	0.00000	0.00000	0.00000	0.00000	0.00000	0.00000	0.00000	0.00000	0.00000	1697.13245	400.53641	151.28464	0.00000	0.00000	0.00000	0.00000	0.00000	0.00000	0.00000	0.00000	0.00000	1935.90198	999.08307	176.23138	2104.40674	1038.99158	240.20280	0.00000	0.00000	0.00000	0.00000	0.00000	0.00000	0.00000	0.00000	0.00000	2053.44897	467.28766	146.60559	2041.19324	496.61646	277.52332	0.00000	0.00000	0.00000	0.00000	0.00000	0.00000	0.00000	0.00000	0.00000	1936.39453	63.59956	259.80795	0.00000	0.00000	0.00000	0.00000	0.00000	0.00000	0.00000	0.00000	0.00000	0.00000	0.00000	0.00000	0.00000	0.00000	0.00000	1985.51428	92.47675	116.20611
1737	6.94400	2098.14404	1049.98474	355.41589	0.00000	0.00000	0.00000	2048.36133	641.99609	417.71613	2048.17041	581.02051	407.08539	0.00000	0.00000	0.00000	0.00000	0.00000	0.00000	2036.92944	495.79785	390.98642	0.00000	0.00000	0.00000	2115.75073	315.21472	384.76129	2113.47363	269.14261	377.40155	0.00000	0.00000	0.00000	0.00000	0.00000	0.00000	0.00000	0.00000	0.00000	0.00000	0.00000	0.00000	0.00000	0.00000	0.00000	1688.55713	398.62781	151.13364	0.00000	0.00000	0.00000	0.00000	0.00000	0.00000	0.00000	0.00000	0.00000	1932.09607	999.35876	176.35732	2100.68945	1039.22791	240.25035	0.00000	0.00000	0.00000	0.00000	0.00000	0.00000	0.00000	0.00000	0.00000	2047.75439	468.08755	147.12573	2039.62292	496.84000	277.36075	0.00000	0.00000	0.00000	0.00000	0.00000	0.00000	0.00000	0.00000	0.00000	1936.27454	63.53313	259.83929	0.00000	0.00000	0.00000	0.00000	0.00000	0.00000	0.00000	0.00000	0.00000	0.00000	0.00000	0.00000	0.00000	0.00000	0.00000	1971.90417	90.64541	115.48859
1738	6.94800	2094.48633	1049.98914	355.41611	0.00000	0.00000	0.00000	2046.29175	642.22424	417.42404	2046.38354	581.27319	406.84775	0.00000	0.00000	0.00000	0.00000	0.00000	0.00000	2035.33374	495.84546	390.77835	0.00000	0.00000	0.00000	2114.88745	315.66763	384.50092	2112.73535	269.56876	377.12735	0.00000	0.00000	0.00000	0.00000	0.00000	0.00000	0.00000	0.00000	0.00000	0.00000	0.00000	0.00000	0.00000	0.00000	0.00000	1680.16504	396.66553	150.98314	0.00000	0.00000	0.00000	0.00000	0.00000	0.00000	0.00000	0.00000	0.00000	1928.31262	999.58954	176.46538	2096.97241	1039.43286	240.29668	0.00000	0.00000	0.00000	0.00000	0.00000	0.00000	0.00000	0.00000	0.00000	2042.36621	469.09949	147.67564	2037.83386	496.85074	277.17209	0.00000	0.00000	0.00000	0.00000	0.00000	0.00000	0.00000	0.00000	0.00000	1936.18201	63.49226	259.87091	0.00000	0.00000	0.00000	0.00000	0.00000	0.00000	0.00000	0.00000	0.00000	0.00000	0.00000	0.00000	0.00000	0.00000	0.00000	1957.89783	88.47391	114.73157
